<svg xmlns="http://www.w3.org/2000/svg" viewBox="0 0 64 64" fill="none">
  <!-- Vertical spine bar -->
  <rect x="12" y="8" width="4" height="48" rx="2" fill="#6c63ff"/>

  <!-- Top card (completed - white/light with checkmark) -->
  <rect x="20" y="10" width="34" height="12" rx="3" fill="#e8e6df"/>
  <path d="M25 16l2.5 2.5L32 14" stroke="#4caf80" stroke-width="2" stroke-linecap="round" stroke-linejoin="round"/>
  <rect x="36" y="15" width="14" height="2" rx="1" fill="#c8c5ba"/>

  <!-- Middle card (in-progress - blue with asterisk as strokes) -->
  <rect x="20" y="26" width="34" height="12" rx="3" fill="#88c0d0"/>
  <g stroke="#fff" stroke-width="1.4" stroke-linecap="round" fill="none">
    <line x1="27" y1="28.5" x2="27" y2="35.5"/>
    <line x1="24.2" y1="30" x2="29.8" y2="34"/>
    <line x1="29.8" y1="30" x2="24.2" y2="34"/>
  </g>
  <rect x="33" y="31" width="16" height="2" rx="1" fill="rgba(255,255,255,0.6)"/>

  <!-- Bottom card (next - green with hash as strokes) -->
  <rect x="20" y="42" width="34" height="12" rx="3" fill="#7fbf7f"/>
  <g stroke="#fff" stroke-width="1.4" stroke-linecap="round" fill="none">
    <line x1="25.5" y1="44.5" x2="25.5" y2="51.5"/>
    <line x1="28.5" y1="44.5" x2="28.5" y2="51.5"/>
    <line x1="24" y1="46.5" x2="30" y2="46.5"/>
    <line x1="24" y1="49.5" x2="30" y2="49.5"/>
  </g>
  <rect x="33" y="47" width="16" height="2" rx="1" fill="rgba(255,255,255,0.5)"/>

  <!-- Connector dots on spine -->
  <circle cx="14" cy="16" r="1.5" fill="#8a82ff"/>
  <circle cx="14" cy="32" r="1.5" fill="#8a82ff"/>
  <circle cx="14" cy="48" r="1.5" fill="#8a82ff"/>
</svg>
